<?xml version="1.0" standalone="no"?>
<!DOCTYPE svg PUBLIC "-//W3C//DTD SVG 20010904//EN"
 "http://www.w3.org/TR/2001/REC-SVG-20010904/DTD/svg10.dtd">
<svg version="1.0" xmlns="http://www.w3.org/2000/svg"
 width="100.000000pt" height="100.000000pt" viewBox="0 0 100.000000 100.000000"
 preserveAspectRatio="xMidYMid meet">
<metadata>
Created by potrace 1.11, written by Peter Selinger 2001-2013
</metadata>
<g transform="translate(0.000000,100.000000) scale(0.100000,-0.100000)"
fill="#000000" stroke="none">
<path d="M108 954 c-5 -4 -8 -31 -8 -61 0 -51 -1 -53 -28 -53 -15 0 -38 -7
-50 -16 l-22 -15 0 -352 c0 -303 2 -356 16 -375 15 -21 21 -22 191 -22 171 0
176 -1 204 -25 54 -44 141 -42 184 5 17 18 32 20 195 20 159 0 179 2 193 18
15 17 17 57 17 368 0 392 0 394 -65 394 l-34 0 -3 58 -3 57 -75 -1 c-113 -2
-260 -46 -305 -91 -13 -12 -19 -11 -47 11 -37 28 -70 42 -143 62 -60 17 -207
29 -217 18z m227 -63 c36 -10 83 -31 105 -46 l40 -28 0 -319 c0 -301 -1 -320
-17 -313 -47 20 -111 35 -166 41 -34 4 -69 8 -77 10 -8 1 -30 3 -47 3 l-33 1
0 340 0 340 65 -5 c36 -4 94 -14 130 -24z m525 -312 l0 -339 -27 -1 c-94 -1
-235 -27 -295 -54 -17 -7 -18 12 -18 313 l0 320 28 18 c74 50 169 78 280 81
l32 1 0 -339z m-760 -74 c0 -228 3 -297 13 -300 6 -2 48 -6 92 -9 132 -10 185
-21 248 -53 48 -24 49 -24 80 -5 29 17 74 31 152 47 17 4 66 9 110 11 44 3 86
7 93 9 9 3 12 72 12 300 l0 296 28 -3 27 -3 0 -345 0 -345 -179 -3 -179 -2
-35 -31 c-29 -26 -41 -30 -70 -25 -19 3 -47 17 -61 30 -26 25 -30 26 -206 28
l-180 3 -3 335 c-1 184 0 341 3 347 2 7 16 13 30 13 l25 0 0 -295z"/>
</g>
</svg>
